<svg width="300" height="300" viewBox="0 0 300 300" fill="none" xmlns="http://www.w3.org/2000/svg">
<circle cx="150" cy="150" r="150" fill="#11194B"/>
<path d="M158.174 32H155.347L144.609 15.5645V32H141.782V10.6719H144.609L155.376 27.1807V10.6719H158.174V32Z" fill="white"/>
<path d="M149.76 281.493C147.348 280.8 145.59 279.95 144.486 278.944C143.393 277.929 142.846 276.679 142.846 275.194C142.846 273.515 143.515 272.128 144.853 271.034C146.2 269.931 147.948 269.379 150.097 269.379C151.562 269.379 152.865 269.662 154.008 270.229C155.16 270.795 156.049 271.576 156.674 272.572C157.309 273.568 157.626 274.657 157.626 275.839H154.799C154.799 274.55 154.389 273.539 153.568 272.807C152.748 272.064 151.591 271.693 150.097 271.693C148.71 271.693 147.626 272.001 146.845 272.616C146.073 273.222 145.688 274.066 145.688 275.15C145.688 276.02 146.054 276.757 146.786 277.362C147.528 277.958 148.783 278.505 150.551 279.003C152.328 279.501 153.715 280.053 154.711 280.658C155.717 281.254 156.459 281.952 156.938 282.753C157.426 283.554 157.67 284.496 157.67 285.58C157.67 287.309 156.996 288.695 155.648 289.74C154.301 290.775 152.499 291.293 150.243 291.293C148.778 291.293 147.411 291.015 146.142 290.458C144.872 289.892 143.891 289.12 143.197 288.144C142.514 287.167 142.172 286.059 142.172 284.818H144.999C144.999 286.107 145.473 287.128 146.42 287.88C147.377 288.622 148.651 288.993 150.243 288.993C151.728 288.993 152.865 288.69 153.656 288.085C154.447 287.479 154.843 286.654 154.843 285.609C154.843 284.564 154.477 283.759 153.744 283.192C153.012 282.616 151.684 282.05 149.76 281.493Z" fill="white"/>
<path d="M293.006 153.142H283.763V160.7H294.5V163H280.95V141.672H294.354V143.986H283.763V150.842H293.006V153.142Z" fill="white"/>
<path d="M11.2598 156.276L11.6699 159.089L12.2705 156.555L16.4893 141.672H18.8623L22.9785 156.555L23.5645 159.133L24.0186 156.262L27.3291 141.672H30.1562L24.9854 163H22.4219L18.0273 147.458L17.6904 145.832L17.3535 147.458L12.7979 163H10.2344L5.07812 141.672H7.89062L11.2598 156.276Z" fill="white"/>
</svg>
